<svg xmlns="http://www.w3.org/2000/svg" xmlns:xlink="http://www.w3.org/1999/xlink" width="15" height="14" viewBox="0 0 15 14"><defs><path id="ucwqa" d="M1011.86 57.85h-6.33c-.67 0-1.29-.48-1.43-1.13l-1.54-7.16h-2.55V48h2.67c.68 0 1.3.48 1.43 1.13l.43 1.98h9.28c.4 0 .76.17.98.48.22.3.26.68.12 1.05l-1.59 4.21c-.22.58-.84 1-1.47 1zm-6.21-1.55h6.2l1.36-3.63h-8.34zm.42 5.7c-.89 0-1.6-.7-1.6-1.56 0-.85.71-1.55 1.6-1.55.88 0 1.6.7 1.6 1.55 0 .86-.72 1.56-1.6 1.56zm5.61 0c-.88 0-1.6-.7-1.6-1.56 0-.85.72-1.55 1.6-1.55.89 0 1.6.7 1.6 1.55 0 .86-.71 1.56-1.6 1.56z"/></defs><g><g transform="translate(-1000 -48)"><use fill="#86ce8e" xlink:href="#ucwqa"/></g></g></svg>